<svg width="129" height="40" viewBox="0 0 129 40" fill="none" xmlns="http://www.w3.org/2000/svg"><path d="M47.12 15.298c-.473 0-.91-.087-1.31-.26a2.545 2.545 0 0 1-.97-.76l.9-1.08c.38.513.813.77 1.3.77.66 0 .99-.387.99-1.16v-3.33h-2.46v-1.3h4.07v4.54c0 .86-.213 1.506-.64 1.94-.427.426-1.053.64-1.88.64Zm10.09-1.59h-1.14v1.47h-1.58v-1.47h-3.77v-1.09l3.3-4.44h1.7l-3.06 4.21h1.88v-1.31h1.53v1.31h1.14v1.32ZM47.163 24.59a3.45 3.45 0 0 1-1.071-.168c-.34-.117-.609-.266-.805-.448l.259-.546c.187.168.425.305.714.413.294.102.595.154.903.154.406 0 .71-.068.91-.203.2-.14.301-.325.301-.553a.525.525 0 0 0-.168-.406 1.041 1.041 0 0 0-.406-.245 7.121 7.121 0 0 0-.679-.19 7.231 7.231 0 0 1-.896-.265 1.526 1.526 0 0 1-.581-.406c-.159-.187-.238-.437-.238-.75 0-.26.068-.496.203-.706.14-.21.35-.378.63-.504s.628-.19 1.043-.19c.29 0 .574.038.854.113.28.074.52.182.721.322l-.231.56a2.447 2.447 0 0 0-.658-.294 2.38 2.38 0 0 0-.686-.105c-.397 0-.695.072-.896.217a.667.667 0 0 0-.294.56c0 .168.056.305.168.413.112.102.25.184.413.245.168.056.394.116.679.182.369.088.665.177.889.266.224.088.415.224.574.406.163.182.245.427.245.735 0 .256-.07.492-.21.707-.14.21-.352.378-.637.504-.285.121-.635.182-1.05.182Zm6.182 0c-.495 0-.94-.108-1.337-.322-.397-.22-.71-.52-.938-.903a2.489 2.489 0 0 1-.336-1.281c0-.472.112-.899.336-1.281.228-.383.541-.682.938-.896.396-.22.842-.33 1.337-.33.49 0 .933.11 1.33.33.396.214.707.513.93.896.225.378.337.805.337 1.28 0 .477-.112.906-.336 1.289a2.422 2.422 0 0 1-.931.896c-.397.214-.84.322-1.33.322Zm0-.623c.359 0 .681-.082.966-.245.289-.164.515-.388.679-.672.168-.29.252-.612.252-.966 0-.355-.084-.675-.252-.96a1.759 1.759 0 0 0-.68-.678 1.906 1.906 0 0 0-.965-.245c-.36 0-.686.081-.98.245-.29.163-.518.39-.686.679a1.891 1.891 0 0 0-.245.959c0 .354.081.676.245.966.168.284.396.508.686.672.294.163.62.245.98.245Zm5.417-3.724v1.708h2.457v.602h-2.457v1.98h-.7v-4.9h3.458v.61h-2.758Zm5.8 0h-1.68v-.61h4.053v.61h-1.68v4.29h-.693v-4.29Zm11.054-.61-1.638 4.9h-.735l-1.337-3.912-1.337 3.913h-.75l-1.637-4.9h.72l1.324 3.983 1.379-3.983h.644l1.35 4.004 1.352-4.004h.665Zm4.87 3.676h-2.603l-.54 1.225h-.72l2.219-4.9h.693l2.226 4.9h-.735l-.54-1.225Zm-.244-.56-1.057-2.401-1.057 2.4h2.114Zm6.576 1.785-1.057-1.505c-.13.009-.233.014-.308.014h-1.211v1.49h-.7v-4.9h1.91c.636 0 1.135.152 1.499.456.364.303.546.72.546 1.253 0 .378-.094.7-.28.966-.187.266-.453.46-.798.58l1.162 1.646h-.763Zm-1.386-2.086c.443 0 .781-.096 1.015-.287.233-.192.35-.465.35-.82 0-.354-.117-.625-.35-.811-.234-.192-.572-.287-1.015-.287h-1.19v2.205h1.19Zm7.802 1.477v.609h-3.556v-4.9h3.458v.609h-2.758v1.505h2.457v.595h-2.457v1.582h2.856Zm-47.499 2.709H47.8c.518 0 .978.102 1.379.308.401.205.712.494.931.868.224.368.336.793.336 1.274 0 .48-.112.907-.336 1.28-.22.37-.53.656-.931.862-.401.205-.861.308-1.379.308h-2.065v-4.9Zm2.023 4.29c.397 0 .744-.076 1.043-.23.303-.154.537-.369.7-.644.163-.28.245-.602.245-.966s-.082-.684-.245-.96a1.659 1.659 0 0 0-.7-.65 2.246 2.246 0 0 0-1.043-.231h-1.323v3.682h1.323Zm8.366 0v.61h-3.556v-4.9h3.458v.609h-2.758v1.505h2.457v.595h-2.457v1.582h2.856Zm6.371-4.29-2.149 4.9h-.693l-2.156-4.9h.756l1.764 4.025 1.778-4.025h.7Zm5.231 4.29v.61H64.17v-4.9h3.458v.609H64.87v1.505h2.457v.595H64.87v1.582h2.856Zm2.184-4.29h.7v4.29h2.653v.61H69.91v-4.9Zm7.329 4.956c-.495 0-.94-.108-1.337-.322-.397-.22-.71-.52-.938-.903a2.489 2.489 0 0 1-.336-1.281c0-.472.112-.899.336-1.281.229-.383.541-.682.938-.896.397-.22.842-.33 1.337-.33.49 0 .933.11 1.33.33.397.214.707.513.931.896.224.378.336.805.336 1.28 0 .477-.112.906-.336 1.289a2.421 2.421 0 0 1-.931.896c-.397.214-.84.322-1.33.322Zm0-.623c.36 0 .681-.082.966-.245.29-.164.516-.388.679-.672.168-.29.252-.612.252-.966 0-.355-.084-.675-.252-.96a1.758 1.758 0 0 0-.679-.678 1.906 1.906 0 0 0-.966-.245c-.36 0-.686.081-.98.245-.29.163-.518.39-.686.679a1.892 1.892 0 0 0-.245.959c0 .354.082.676.245.966.168.284.397.508.686.672.294.163.62.245.98.245Zm6.628-4.333c.635 0 1.134.151 1.498.455.364.303.546.72.546 1.253 0 .532-.182.95-.546 1.253-.364.303-.863.455-1.498.455h-1.211v1.484h-.7v-4.9h1.91Zm-.021 2.807c.443 0 .782-.094 1.015-.28.233-.192.35-.465.35-.82 0-.354-.117-.625-.35-.811-.233-.192-.572-.287-1.015-.287h-1.19v2.198h1.19Zm8.686 2.093-.007-3.57-1.77 2.975h-.323l-1.77-2.954v3.549h-.673v-4.9h.574l2.044 3.444 2.016-3.444h.574l.007 4.9h-.672Zm6.749-.61v.61h-3.556v-4.9h3.458v.609h-2.758v1.505h2.457v.595h-2.457v1.582h2.856Zm6.397-4.29v4.9h-.574l-2.94-3.654v3.654h-.7v-4.9h.574l2.94 3.654v-3.654h.7Zm3.49.609h-1.68v-.61h4.053v.61h-1.68v4.29h-.693v-4.29Z" fill="#fff"/><path fill-rule="evenodd" clip-rule="evenodd" d="M13.313 31.14c6.15.633 12.852-3.573 13.537-8.383-5.158.85-3.002-.504-6.776 2.03-1.967 1.311-3.905 1.455-6.731 1.974l-.03 4.378ZM16.753 8.095c4.138-2.088 5.945 4.378 2.404 5.718-3.978 1.512-6.178-3.817-2.404-5.718Zm-.03-1.541c-5.478 1.455-3.744 10.384 2.521 8.814 5.406-1.354 4.08-10.571-2.52-8.814ZM28.06 8.095c3.978-2.03 6.382 4.277 2.404 5.732-4.007 1.47-6.003-3.889-2.404-5.732Zm-.015-1.527c-5.508 1.498-3.701 10.313 2.492 8.8 5.493-1.34 4.021-10.571-2.492-8.8Z" fill="#A1D4EC"/><path fill-rule="evenodd" clip-rule="evenodd" d="M28.06 8.095c-3.6 1.843-1.603 7.201 2.404 5.732 3.963-1.455 1.574-7.763-2.404-5.732ZM16.753 8.095c-3.774 1.901-1.589 7.23 2.404 5.718 3.54-1.34 1.734-7.806-2.404-5.718Z" fill="#293A5B"/><path fill-rule="evenodd" clip-rule="evenodd" d="M13.313 24.543c1.603.057 3.629-.217 4.984-1.009 1.18-.705.743-.59 1.093-1.022-1.56-.98-2.259-1.124-3.556-2.132-1.326-1.022-1.399-1.541-2.52-2.42V24.543ZM23.805 21.057c2.827-.1 6.455-1.224 7.65-3.802-5.64.662-4.386.749-7.65 3.802ZM15.835 17.298c1.617 1.282.626 1.57 3.35 2.823 1.808.835 2.332.893 4.358.893-2.463-2.621-3.293-3.327-7.708-3.73v.014Z" fill="#A1D4EC"/><path fill-rule="evenodd" clip-rule="evenodd" d="m11.289 31.24-.015-10.932-2.58 2.88c-.441.581-.978 1.255-1.548 1.97-1.666 2.091-3.614 4.537-4.309 6.039l8.452.043ZM13.04 1.865A226.583 226.583 0 0 1 8.637.101v.015C7.267-.46 6.393 1.585 7.762 2.16c.882.367 1.763.738 2.645 1.109.882.37 1.763.742 2.645 1.109-1.956 4.802-1.856 6.893-1.778 8.531.09 1.89.151 3.176-3.002 7.326l-6.935 8.901c-3.854 4.813 1.327 4.536 6.649 4.252 1.097-.059 2.199-.118 3.23-.133l.16 6.669c16.64 1.022 23.197-8.483 24.333-21.979.583-6.942.423-7.648-1.355-13.193l6.207-2.607c1.37-.576.496-2.62-.874-2.045-1.783.749-3.527 1.356-5.244 1.954-1.917.667-3.802 1.323-5.67 2.151-1.82.792-3.628 1.757-5.434 3.039-.83-1.138-3.016-2.39-5.45-3.428a200.852 200.852 0 0 0-4.849-1.952Zm.288 24.881-.029 4.379c6.135.633 12.852-3.572 13.537-8.383-2.762.455-3.427.278-4.028.405-.521.11-.994.448-2.748 1.626-1.636 1.099-3.272 1.378-5.423 1.744-.416.071-.85.145-1.309.23Zm-.029-8.785v6.582c1.603.057 3.628-.202 4.983-1.008.817-.489.86-.591.924-.746a.933.933 0 0 1 .17-.277 22.311 22.311 0 0 0-1.586-.9c-.648-.343-1.205-.637-1.97-1.232-.705-.545-1.06-.948-1.399-1.332-.305-.346-.597-.678-1.122-1.087Zm.03 15.41-.059 4.48c12.735 1.08 19.583-7.893 20.356-19.473-3.825 2.478-4.926 4.891-5.92 7.07-1.576 3.457-2.883 6.324-14.378 7.923Zm10.2-12.343c-2.463-2.62-3.294-3.327-7.709-3.73v.015c.627.496.862.841 1.073 1.152.334.49.61.894 2.278 1.67 1.807.836 2.332.879 4.357.893Zm1.829-1.538c-.394.413-.88.924-1.568 1.567 2.827-.1 6.455-1.224 7.65-3.802-4.452.523-4.608.687-6.082 2.235ZM28.03 6.554c6.528-1.772 7.985 7.46 2.492 8.8-6.192 1.512-8-7.302-2.491-8.8Zm-11.336-.015c6.6-1.757 7.927 7.46 2.521 8.815-6.265 1.57-8.014-7.36-2.52-8.815Zm4.763 10.209 2.303-2.277 2.302 2.277-2.302 2.276-2.303-2.276Z" fill="#fff"/><path d="M17.918 11.998c.636 0 1.152-.51 1.152-1.138 0-.628-.516-1.138-1.152-1.138-.635 0-1.15.51-1.15 1.138 0 .628.515 1.138 1.15 1.138ZM29.356 12.084c.636 0 1.151-.51 1.151-1.138 0-.628-.515-1.137-1.15-1.137-.636 0-1.152.509-1.152 1.137 0 .629.516 1.138 1.151 1.138Z" fill="#fff"/></svg>