<svg width="18" height="18" viewBox="0 0 18 18" fill="none" xmlns="http://www.w3.org/2000/svg"><path d="M0 6.4c0-2.24 0-3.36.436-4.216A4 4 0 0 1 2.184.436C3.04 0 4.16 0 6.4 0h5.2c2.24 0 3.36 0 4.216.436a4 4 0 0 1 1.748 1.748C18 3.04 18 4.16 18 6.4v5.2c0 2.24 0 3.36-.436 4.216a4 4 0 0 1-1.748 1.748C14.96 18 13.84 18 11.6 18H6.4c-2.24 0-3.36 0-4.216-.436a4 4 0 0 1-1.748-1.748C0 14.96 0 13.84 0 11.6V6.4Z" fill="#2C2C2C"/><path d="m13.666 5.274-.94-.94L9 8.06 5.273 4.333l-.94.94L8.06 9l-3.727 3.727.94.94L9 9.94l3.726 3.727.94-.94L9.94 9l3.726-3.726Z" fill="#fff" fill-opacity=".56"/></svg>